#N canvas -9 -9 1920 976 12;
#X text 192 245 creation arguments are OSC address;
#X text 192 221 set message to change OSC address;
#X floatatom 47 181 5 0 0 0 - - -;
#N canvas 1338 124 949 599 oscReceive 1;
#X obj 55 184 netreceive -u -b;
#X msg 78 143 listen 0;
#X text 152 143 stop listening;
#X text 64 58 packets from network;
#X text 173 177 UDP packets \, binary output, f 13;
#X obj 45 314 print;
#X obj 45 272 oscparse;
#X text 150 114 listen on port 8000;
#X obj 177 269 oscparse;
#X obj 177 293 list trim;
#X floatatom 43 455 5 0 0 0 - - -;
#X text 241 267 Parse the OSC message;
#X obj 177 319 route unity;
#X msg 66 115 listen 8000;
#X obj 66 84 loadbang;
#X floatatom 166 455 5 0 0 0 - - -;
#X obj 165 432 route tempo;
#X floatatom 259 457 5 0 0 0 - - -;
#X floatatom 333 457 5 0 0 0 - - -;
#X obj 258 434 route bgm;
#X obj 259 484 s bgm;
#X obj 42 432 route hitCollect;
#X obj 43 482 s hitCollect;
#X obj 166 482 s tempo;
#X floatatom 444 459 5 0 0 0 - - -;
#X obj 444 433 route colwall;
#X obj 444 487 s colwall;
#X obj 333 484 s hitNPC;
#X obj 332 434 route hitNPC;
#X connect 0 0 6 0;
#X connect 0 0 8 0;
#X connect 1 0 0 0;
#X connect 6 0 5 0;
#X connect 8 0 9 0;
#X connect 9 0 12 0;
#X connect 10 0 22 0;
#X connect 12 0 16 0;
#X connect 12 0 19 0;
#X connect 12 0 21 0;
#X connect 12 0 25 0;
#X connect 12 0 28 0;
#X connect 13 0 0 0;
#X connect 14 0 13 0;
#X connect 15 0 23 0;
#X connect 16 0 15 0;
#X connect 17 0 20 0;
#X connect 18 0 27 0;
#X connect 19 0 17 0;
#X connect 21 0 10 0;
#X connect 24 0 26 0;
#X connect 25 0 24 0;
#X connect 28 0 18 0;
#X restore 47 127 pd oscReceive;
#X obj 47 36 tgl 15 0 empty empty empty 17 7 0 10 -262144 -1 -1 1 1
;
#X msg 47 59 \; pd dsp \$1;
#X obj 47 261 oscformat PD message;
#X msg 79 222 set PD message;
#N canvas 1070 331 450 300 oscSend 1;
#X msg 158 207 disconnect;
#X obj 61 253 netsend -u -b;
#X obj 59 55 list prepend send;
#X obj 59 80 list trim;
#X msg 150 175 connect 127.0.0.1 8001;
#X obj 59 29 r oscOut;
#X text 301 163 send to port 8001;
#X msg 147 148 connect localhost 8001;
#X obj 147 108 loadbang;
#X connect 0 0 1 0;
#X connect 2 0 3 0;
#X connect 3 0 1 0;
#X connect 4 0 1 0;
#X connect 5 0 2 0;
#X connect 7 0 1 0;
#X connect 8 0 7 0;
#X restore 47 154 pd oscSend;
#X obj 47 288 s oscOut;
#X text 139 147 Send defaults to localhost:8001;
#X text 139 123 Receive defaults to localhost:8000;
#X obj 210 412 r hitCollect;
#X obj 1194 181 r bgm;
#X obj 1261 181 r tempo;
#N canvas -9 -9 1920 976 soundClip 0;
#X obj 13 13 loadbang;
#X obj 78 179 bng 15 250 50 0 empty empty empty 17 7 0 10 -262144 -1
-1;
#X obj 78 235 soundfiler;
#X floatatom 78 265 0 0 0 0 - - -;
#X floatatom 191 265 5 0 0 0 - - -;
#X obj 191 235 soundfiler;
#X floatatom 313 265 5 0 0 0 - - -;
#X obj 313 235 soundfiler;
#X msg 78 205 read -resize;
#X msg 191 205 read -resize;
#X msg 313 205 read -resize;
#X obj 83 39 bng 15 250 50 0 empty empty empty 17 7 0 10 -262144 -1
-1;
#X obj 83 95 soundfiler;
#X floatatom 83 125 0 0 0 0 - - -;
#X floatatom 196 125 5 0 0 0 - - -;
#X obj 196 95 soundfiler;
#X floatatom 318 125 5 0 0 0 - - -;
#X obj 318 95 soundfiler;
#X msg 83 65 read -resize;
#X msg 196 65 read -resize;
#X msg 318 65 read -resize;
#X obj 72 319 bng 15 250 50 0 empty empty empty 17 7 0 10 -262144 -1
-1;
#X obj 72 375 soundfiler;
#X floatatom 72 405 0 0 0 0 - - -;
#X floatatom 185 405 5 0 0 0 - - -;
#X obj 185 375 soundfiler;
#X floatatom 307 405 5 0 0 0 - - -;
#X obj 307 375 soundfiler;
#X msg 72 345 read -resize;
#X msg 185 345 read -resize;
#X msg 307 345 read -resize;
#X connect 0 0 11 0;
#X connect 0 0 1 0;
#X connect 0 0 21 0;
#X connect 1 0 8 0;
#X connect 1 0 9 0;
#X connect 1 0 10 0;
#X connect 2 0 3 0;
#X connect 5 0 4 0;
#X connect 7 0 6 0;
#X connect 8 0 2 0;
#X connect 9 0 5 0;
#X connect 10 0 7 0;
#X connect 11 0 18 0;
#X connect 11 0 19 0;
#X connect 11 0 20 0;
#X connect 12 0 13 0;
#X connect 15 0 14 0;
#X connect 17 0 16 0;
#X connect 18 0 12 0;
#X connect 19 0 15 0;
#X connect 20 0 17 0;
#X connect 21 0 28 0;
#X connect 21 0 29 0;
#X connect 21 0 30 0;
#X connect 22 0 23 0;
#X connect 25 0 24 0;
#X connect 27 0 26 0;
#X connect 28 0 22 0;
#X connect 29 0 25 0;
#X connect 30 0 27 0;
#X restore 47 100 pd soundClip;
#X obj 436 949 dac~;
#X obj 210 473 bng 15 250 50 0 empty empty empty 17 7 0 10 -262144
-1 -1;
#X obj 437 412 r colwall;
#X obj 437 473 bng 15 250 50 0 empty empty empty 17 7 0 10 -262144
-1 -1;
#X text 139 99 loads sound files into respective tables;
#X obj 694 446 bng 15 250 50 0 empty empty empty 17 7 0 10 -262144
-1 -1;
#X obj 694 386 r hitNPC;
#X obj 436 886 *~;
#X obj 1194 288 metro 4000;
#X obj 1194 208 tgl 15 0 empty empty empty 17 7 0 10 -262144 -1 -1
1 1;
#X obj 1194 315 f;
#X obj 1243 330 + 1;
#X obj 1195 413 select 0 1 2 3;
#X obj 1386 412 loadbang;
#X obj 1207 559 + 0;
#X msg 1176 473 0;
#X obj 1207 586 mtof;
#X floatatom 1207 613 5 0 0 0 - - -;
#X obj 1338 586 vline~;
#X obj 1207 666 *~;
#X floatatom 1386 466 5 0 0 0 - - -;
#X msg 1338 559 1 25 \, 0 25 75;
#X msg 1220 473 2;
#X msg 1268 473 0;
#X msg 1314 473 4;
#X msg 1284 261 400;
#X obj 1207 639 osc~;
#X msg 1386 439 60;
#X obj 1195 386 mod 6;
#X floatatom 924 466 5 0 0 0 - - -;
#X msg 924 439 70;
#X obj 924 412 loadbang;
#X obj 924 535 phasor~;
#X obj 1001 559 vline~;
#X msg 1001 504 1 25 \, 0 25 75;
#X obj 923 624 *~;
#X text 72 356 Each of these 'r' functions comes in from oscRecieve
\, which parsed the incoming packets and wired them accordingly;
#X text 992 452 Here we mix in a phasor with the sample, f 17;
#X text 1304 356 The background music uses a osc to synthesize sounds
;
#X obj 1356 754 hsl 128 15 0 1 0 0 empty empty Volume -2 -8 0 10 -262144
-1 -1 12700 1;
#X msg 1353 679 1;
#X obj 1353 652 loadbang;
#X obj 1053 652 hsl 128 15 0 1 0 0 empty empty Volume -2 -8 0 10 -262144
-1 -1 12700 1;
#X msg 1050 586 1;
#X obj 1050 559 loadbang;
#X obj 439 624 *~;
#X obj 548 589 hsl 128 15 0 1 0 0 empty empty Volume -2 -8 0 10 -262144
-1 -1 12700 1;
#X msg 449 550 1;
#X obj 449 523 loadbang;
#X obj 212 589 *~;
#X obj 275 589 hsl 128 15 0 1 0 0 empty empty Volume -2 -8 0 10 -262144
-1 -1 12700 1;
#X msg 358 531 1;
#X obj 358 504 loadbang;
#X obj 691 589 *~;
#X obj 690 652 +~;
#X obj 754 589 hsl 128 15 0 1 0 0 empty empty Volume -2 -8 0 10 -262144
-1 -1 12700 1;
#X msg 720 562 1;
#X obj 720 535 loadbang;
#X text 6 503 The 'tabplay~' objects use samples that were imported
into tables in the soundClip patch!, f 25;
#X obj 437 496 tabplay~;
#X obj 210 496 tabplay~;
#X obj 691 504 tabplay~;
#X connect 2 0 6 0;
#X connect 4 0 5 0;
#X connect 6 0 9 0;
#X connect 7 0 6 0;
#X connect 12 0 17 0;
#X connect 13 0 25 0;
#X connect 14 0 24 1;
#X connect 17 0 76 0;
#X connect 18 0 19 0;
#X connect 19 0 75 0;
#X connect 21 0 50 0;
#X connect 21 0 77 0;
#X connect 22 0 21 0;
#X connect 23 0 16 1;
#X connect 23 0 16 0;
#X connect 24 0 26 0;
#X connect 24 0 37 0;
#X connect 25 0 24 0;
#X connect 25 0 41 0;
#X connect 26 0 27 0;
#X connect 26 0 44 0;
#X connect 27 0 26 1;
#X connect 28 0 31 0;
#X connect 28 1 38 0;
#X connect 28 2 39 0;
#X connect 28 3 40 0;
#X connect 29 0 43 0;
#X connect 30 0 32 0;
#X connect 31 0 30 0;
#X connect 32 0 33 0;
#X connect 33 0 42 0;
#X connect 34 0 35 1;
#X connect 35 0 23 0;
#X connect 36 0 30 1;
#X connect 37 0 34 0;
#X connect 38 0 30 0;
#X connect 39 0 30 0;
#X connect 40 0 30 0;
#X connect 41 0 24 1;
#X connect 42 0 35 0;
#X connect 43 0 36 0;
#X connect 44 0 28 0;
#X connect 45 0 48 0;
#X connect 46 0 45 0;
#X connect 47 0 46 0;
#X connect 48 0 51 0;
#X connect 49 0 51 1;
#X connect 50 0 49 0;
#X connect 51 0 70 1;
#X connect 55 0 35 1;
#X connect 56 0 55 0;
#X connect 57 0 56 0;
#X connect 58 0 51 1;
#X connect 59 0 58 0;
#X connect 60 0 59 0;
#X connect 61 0 23 0;
#X connect 62 0 61 1;
#X connect 63 0 62 0;
#X connect 64 0 63 0;
#X connect 65 0 23 0;
#X connect 66 0 65 1;
#X connect 67 0 66 0;
#X connect 68 0 67 0;
#X connect 69 0 70 0;
#X connect 70 0 23 0;
#X connect 71 0 69 1;
#X connect 72 0 71 0;
#X connect 73 0 72 0;
#X connect 75 0 61 0;
#X connect 76 0 65 0;
#X connect 77 0 69 0;
