#N canvas -9 -9 1920 976 12;
#X text 192 245 creation arguments are OSC address;
#X text 192 221 set message to change OSC address;
#X floatatom 47 181 5 0 0 0 - - -;
#N canvas -8 0 958 966 oscReceive 0;
#X obj 55 184 netreceive -u -b;
#X msg 78 143 listen 0;
#X text 152 143 stop listening;
#X text 64 58 packets from network;
#X text 173 177 UDP packets \, binary output, f 13;
#X obj 45 314 print;
#X obj 45 272 oscparse;
#X text 150 114 listen on port 8000;
#X obj 177 269 oscparse;
#X obj 177 293 list trim;
#X floatatom 43 455 5 0 0 0 - - -;
#X text 241 267 Parse the OSC message;
#X obj 177 319 route unity;
#X msg 66 115 listen 8000;
#X obj 66 84 loadbang;
#X floatatom 241 463 5 0 0 0 - - -;
#X floatatom 353 463 5 0 0 0 - - -;
#X floatatom 436 466 5 0 0 0 - - -;
#X obj 436 440 route colwall;
#X obj 436 494 s colwall;
#X obj 42 432 route height;
#X obj 73 620 s height;
#X msg 21 549 0;
#X msg 65 549 1;
#X msg 113 549 2;
#X msg 159 549 3;
#X obj 40 489 select 0 240 440 640;
#X text 110 462 City Strata;
#X obj 352 440 route hook;
#X obj 353 490 s hook;
#X floatatom 65 573 5 0 0 0 - - -;
#X floatatom 113 573 5 0 0 0 - - -;
#X floatatom 159 573 5 0 0 0 - - -;
#X floatatom 21 573 5 0 0 0 - - -;
#X obj 240 440 route pickup;
#X obj 241 533 s pickup;
#X msg 241 496 1;
#X connect 0 0 6 0;
#X connect 0 0 8 0;
#X connect 1 0 0 0;
#X connect 6 0 5 0;
#X connect 8 0 9 0;
#X connect 9 0 12 0;
#X connect 10 0 26 0;
#X connect 12 0 18 0;
#X connect 12 0 20 0;
#X connect 12 0 28 0;
#X connect 12 0 34 0;
#X connect 13 0 0 0;
#X connect 14 0 13 0;
#X connect 15 0 36 0;
#X connect 16 0 29 0;
#X connect 17 0 19 0;
#X connect 18 0 17 0;
#X connect 20 0 10 0;
#X connect 22 0 33 0;
#X connect 23 0 30 0;
#X connect 24 0 31 0;
#X connect 25 0 32 0;
#X connect 26 0 22 0;
#X connect 26 1 23 0;
#X connect 26 2 24 0;
#X connect 26 3 25 0;
#X connect 28 0 16 0;
#X connect 30 0 21 0;
#X connect 31 0 21 0;
#X connect 32 0 21 0;
#X connect 33 0 21 0;
#X connect 34 0 15 0;
#X connect 36 0 35 0;
#X restore 47 127 pd oscReceive;
#X obj 47 36 tgl 15 0 empty empty empty 17 7 0 10 -262144 -1 -1 0 1
;
#X msg 47 59 \; pd dsp \$1;
#X obj 47 261 oscformat PD message;
#X msg 79 222 set PD message;
#N canvas 878 273 450 300 oscSend 0;
#X msg 158 207 disconnect;
#X obj 61 253 netsend -u -b;
#X obj 59 55 list prepend send;
#X obj 59 80 list trim;
#X msg 150 175 connect 127.0.0.1 8001;
#X obj 59 29 r oscOut;
#X text 301 163 send to port 8001;
#X msg 147 148 connect localhost 8001;
#X obj 147 108 loadbang;
#X connect 0 0 1 0;
#X connect 2 0 3 0;
#X connect 3 0 1 0;
#X connect 4 0 1 0;
#X connect 5 0 2 0;
#X connect 7 0 1 0;
#X connect 8 0 7 0;
#X restore 47 154 pd oscSend;
#X obj 47 288 s oscOut;
#X text 151 156 Send defaults to localhost:8001;
#X text 151 127 Receive defaults to localhost:8000;
#N canvas -9 -9 1920 976 soundClip 0;
#X obj 13 13 loadbang;
#X obj 36 170 bng 15 250 50 0 empty empty empty 17 7 0 10 -262144 -1
-1;
#X obj 36 238 soundfiler;
#X floatatom 36 268 0 0 0 0 - - -;
#X floatatom 297 270 5 0 0 0 - - -;
#X obj 297 238 soundfiler;
#X obj 83 40 bng 15 250 50 0 empty empty empty 17 7 0 10 -262144 -1
-1;
#X floatatom 83 126 0 0 0 0 - - -;
#X floatatom 375 124 5 0 0 0 - - -;
#X obj 17 349 bng 15 250 50 0 empty empty empty 17 7 0 10 -262144 -1
-1;
#X obj 17 438 soundfiler;
#X floatatom 17 468 0 0 0 0 - - -;
#X floatatom 307 468 5 0 0 0 - - -;
#X obj 307 438 soundfiler;
#X obj 83 96 soundfiler BR_IN;
#X obj 375 94 soundfiler BR_LOOP;
#N canvas 212 36 450 300 (subpatch) 0;
#X array br_in_t 64028 float 0;
#X coords 0 1 64027 -1 300 100 1 0 0;
#X restore 723 69 graph;
#X msg 83 66 read -resize Brassy_lead_in.wav br_in_t;
#X msg 375 64 read -resize Brassy_core_loop.wav br_loop_t;
#N canvas 212 36 450 300 (subpatch) 0;
#X array br_loop_t 352907 float 0;
#X coords 0 1 352906 -1 300 100 1 0 0;
#X restore 1044 70 graph;
#N canvas 212 36 450 300 (subpatch) 0;
#X array peak_2_t 1.27245e+006 float 0;
#X coords 0 1 1.27245e+006 -1 300 100 1 0 0;
#X restore 723 225 graph;
#N canvas 212 36 450 300 (subpatch) 0;
#X array jungly_loop_t 304086 float 0;
#X coords 0 1 304085 -1 300 100 1 0 0;
#X restore 1054 227 graph;
#N canvas 212 36 450 300 (subpatch) 0;
#X array wob_in_t 104120 float 0;
#X coords 0 1 104119 -1 300 100 1 0 0;
#X restore 723 363 graph;
#N canvas 212 36 450 300 (subpatch) 0;
#X array wob_loop_t 264206 float 0;
#X coords 0 1 264205 -1 300 100 1 0 0;
#X restore 1044 365 graph;
#X msg 36 208 read -resize PEAK_2.wav peak_2_t;
#X msg 297 208 read -resize Jungly_core_loop.wav jungly_loop_t;
#X msg 17 408 read -resize WOBBLE_LOOP.wav wob_loop_t;
#X text 168 7 Sound bytes here are made in FL Studio with sound packs
and samples from samplephonics. Packs include MIDNIGHT pack by kainai
and sax by stargazer.;
#X msg 307 408 read -resize WOBBLE_lead_in.wav wob_in_t;
#X connect 0 0 6 0;
#X connect 0 0 1 0;
#X connect 0 0 9 0;
#X connect 1 0 24 0;
#X connect 1 0 25 0;
#X connect 2 0 3 0;
#X connect 5 0 4 0;
#X connect 6 0 17 0;
#X connect 6 0 18 0;
#X connect 9 0 26 0;
#X connect 9 0 28 0;
#X connect 10 0 11 0;
#X connect 13 0 12 0;
#X connect 14 0 7 0;
#X connect 15 0 8 0;
#X connect 17 0 14 0;
#X connect 18 0 15 0;
#X connect 24 0 2 0;
#X connect 25 0 5 0;
#X connect 26 0 10 0;
#X connect 28 0 13 0;
#X restore 47 100 pd soundClip;
#X text 146 100 loads sound files into respective tables;
#X text 684 100 BGM logic receivers;
#N canvas 1091 0 820 966 height 0;
#X text 14 4 Here \, height will be either 0 \, 1 \, 2 \, or 3 for
simplicity (to edit actual height values \, go to the recieve patch)
;
#X obj 41 220 tabplay~ br_in_t;
#X obj 150 251 tabplay~ br_loop_t;
#X obj 40 448 *~;
#X text 13 45 Height should only be sent when THRESH values are triggered
(up or down);
#X obj 41 93 r height;
#X floatatom 146 359 5 0 0 0 - - -;
#X obj 146 331 r v0;
#X floatatom 41 117 5 0 0 0 - - -;
#X msg 94 165 0;
#X obj 94 191 s v0;
#X msg 49 166 1;
#X obj 49 190 s v0;
#X obj 148 383 select 0 1;
#X obj 146 430 vline~;
#X msg 146 406 0 50;
#X msg 191 406 1 50;
#X obj 377 444 *~;
#X obj 378 89 r height;
#X floatatom 483 355 5 0 0 0 - - -;
#X floatatom 378 113 5 0 0 0 - - -;
#X msg 431 161 0;
#X msg 386 162 1;
#X obj 483 378 select 0 1;
#X obj 483 426 vline~;
#X msg 483 402 0 50;
#X msg 528 402 1 50;
#X obj 386 186 s v1;
#X obj 431 187 s v1;
#X obj 483 327 r v1;
#X obj 378 216 tabplay~ wob_in_t;
#X obj 494 247 tabplay~ wob_loop_t;
#X obj 373 842 *~;
#X obj 374 567 r height;
#X floatatom 419 753 5 0 0 0 - - -;
#X floatatom 374 591 5 0 0 0 - - -;
#X msg 427 639 0;
#X msg 382 640 1;
#X obj 419 776 select 0 1;
#X obj 419 824 vline~;
#X msg 419 800 0 50;
#X msg 464 800 1 50;
#X obj 374 694 tabplay~ peak_2_t;
#X obj 374 612 select 3;
#X obj 382 664 s v3;
#X obj 427 665 s v3;
#X obj 419 725 r v3;
#X obj 38 842 *~;
#X obj 39 567 r height;
#X floatatom 84 753 5 0 0 0 - - -;
#X floatatom 39 591 5 0 0 0 - - -;
#X msg 92 639 0;
#X msg 47 640 1;
#X obj 84 776 select 0 1;
#X obj 84 824 vline~;
#X msg 84 800 0 50;
#X msg 129 800 1 50;
#X obj 39 694 tabplay~ jungly_loop_t;
#X text 447 134 Strata level represented by select value (per unit)
;
#X obj 39 612 select 0;
#X obj 41 138 select 1;
#X obj 378 134 select 2;
#X obj 47 664 s v2;
#X obj 92 665 s v2;
#X obj 84 725 r v2;
#X msg 130 639 stop;
#X obj 130 665 s l2;
#X obj 190 721 s l2;
#X obj -6 676 r l2;
#X obj 322 676 r l3;
#X msg 470 640 stop;
#X obj 490 720 s l3;
#X obj 470 666 s l3;
#X obj 580 522 spigot;
#X obj 580 546 select 1;
#X msg 633 573 stop;
#X obj 619 490 r vX;
#X obj 580 618 s tX;
#X obj 633 597 s tX;
#X text 569 456 Foolish initial attempt;
#X obj 273 278 s l0;
#X obj 163 221 r l0;
#X obj 132 191 s l0;
#X msg 132 165 stop;
#X msg 470 162 stop;
#X obj 470 187 s l1;
#X obj 507 217 r l1;
#X obj 624 271 s l1;
#X obj 39 495 *~;
#X obj 57 473 r MV;
#X obj 39 519 dac~;
#X obj 378 490 *~;
#X obj 396 468 r MV;
#X obj 378 514 dac~;
#X obj 38 889 *~;
#X obj 56 867 r MV;
#X obj 38 913 dac~;
#X obj 373 885 *~;
#X obj 391 863 r MV;
#X obj 373 909 dac~;
#X text 499 9 vX = Volume toggle \, clipless;
#X text 500 29 lX = Loop Controller;
#X connect 1 0 3 0;
#X connect 1 1 2 0;
#X connect 2 0 3 0;
#X connect 2 1 80 0;
#X connect 3 0 88 0;
#X connect 5 0 8 0;
#X connect 6 0 13 0;
#X connect 7 0 6 0;
#X connect 8 0 60 0;
#X connect 9 0 10 0;
#X connect 11 0 12 0;
#X connect 13 0 15 0;
#X connect 13 1 16 0;
#X connect 14 0 3 1;
#X connect 15 0 14 0;
#X connect 16 0 14 0;
#X connect 17 0 91 0;
#X connect 18 0 20 0;
#X connect 19 0 23 0;
#X connect 20 0 61 0;
#X connect 21 0 28 0;
#X connect 22 0 27 0;
#X connect 23 0 25 0;
#X connect 23 1 26 0;
#X connect 24 0 17 1;
#X connect 25 0 24 0;
#X connect 26 0 24 0;
#X connect 29 0 19 0;
#X connect 30 0 17 0;
#X connect 30 1 31 0;
#X connect 31 0 17 0;
#X connect 31 1 87 0;
#X connect 32 0 97 0;
#X connect 33 0 35 0;
#X connect 34 0 38 0;
#X connect 35 0 43 0;
#X connect 36 0 45 0;
#X connect 37 0 44 0;
#X connect 38 0 40 0;
#X connect 38 1 41 0;
#X connect 39 0 32 1;
#X connect 40 0 39 0;
#X connect 41 0 39 0;
#X connect 42 0 32 0;
#X connect 42 1 71 0;
#X connect 43 0 37 0;
#X connect 43 0 42 0;
#X connect 43 1 36 0;
#X connect 43 1 70 0;
#X connect 46 0 34 0;
#X connect 47 0 94 0;
#X connect 48 0 50 0;
#X connect 49 0 53 0;
#X connect 50 0 59 0;
#X connect 51 0 63 0;
#X connect 52 0 62 0;
#X connect 53 0 55 0;
#X connect 53 1 56 0;
#X connect 54 0 47 1;
#X connect 55 0 54 0;
#X connect 56 0 54 0;
#X connect 57 0 47 0;
#X connect 57 1 67 0;
#X connect 59 0 52 0;
#X connect 59 0 57 0;
#X connect 59 1 51 0;
#X connect 59 1 65 0;
#X connect 60 0 1 0;
#X connect 60 0 11 0;
#X connect 60 1 9 0;
#X connect 60 1 83 0;
#X connect 61 0 22 0;
#X connect 61 0 30 0;
#X connect 61 1 21 0;
#X connect 61 1 84 0;
#X connect 64 0 49 0;
#X connect 65 0 66 0;
#X connect 68 0 57 0;
#X connect 69 0 42 0;
#X connect 70 0 72 0;
#X connect 73 0 74 0;
#X connect 74 0 77 0;
#X connect 74 1 75 0;
#X connect 75 0 78 0;
#X connect 76 0 73 1;
#X connect 81 0 2 0;
#X connect 83 0 82 0;
#X connect 84 0 85 0;
#X connect 86 0 31 0;
#X connect 88 0 90 0;
#X connect 88 0 90 1;
#X connect 89 0 88 1;
#X connect 91 0 93 0;
#X connect 91 0 93 1;
#X connect 92 0 91 1;
#X connect 94 0 96 0;
#X connect 94 0 96 1;
#X connect 95 0 94 1;
#X connect 97 0 99 0;
#X connect 97 0 99 1;
#X connect 98 0 97 1;
#X restore 541 99 pd height triggers;
#N canvas 24 98 1920 976 PEAK 0;
#X obj 20 43 vline~;
#X obj 20 84 *~;
#X obj 129 71 noise~;
#X msg 20 14 1 1 0 \, 0 500 3;
#X obj 20 131 +~;
#X obj 129 90 bp~ 500 5;
#X obj 125 174 r v3;
#X obj 21 193 *~ 0.7;
#X obj 60 131 loadbang;
#X floatatom 60 163 5 0 0 0 - - -;
#X obj 20 236 *~;
#X obj 38 214 r MV;
#X obj 20 260 dac~;
#X text 189 14 This is triggered by V3 \, which is PEAKS volume controller.
;
#X connect 0 0 1 0;
#X connect 0 0 1 1;
#X connect 1 0 4 0;
#X connect 2 0 5 0;
#X connect 3 0 0 0;
#X connect 4 0 7 0;
#X connect 5 0 4 1;
#X connect 6 0 7 1;
#X connect 7 0 10 0;
#X connect 8 0 9 0;
#X connect 9 0 7 1;
#X connect 10 0 12 0;
#X connect 10 0 12 1;
#X connect 11 0 10 1;
#X restore 540 125 pd PEAK wind;
#N canvas -9 1 262 233 colwall 0;
#X obj 13 96 vline~;
#X obj 13 137 *~;
#X obj 32 163 noise~;
#X msg 13 67 1 1 0 \, 0 500 3;
#X obj 13 216 *~;
#X obj 148 128 vline~;
#X msg 148 103 1 \, 0 50;
#X obj 148 149 *~ 2;
#X obj 149 180 +~ 0.25;
#X obj 148 216 cos~;
#X obj 76 285 dac~;
#X obj 77 235 +~;
#X text 3 3 BP arg 2 set to 57 feels EMPTY;
#X obj 32 182 bp~ 900 5;
#X obj 148 44 r colwall;
#X connect 0 0 1 0;
#X connect 0 0 1 1;
#X connect 1 0 4 0;
#X connect 2 0 13 0;
#X connect 3 0 0 0;
#X connect 4 0 11 0;
#X connect 5 0 7 0;
#X connect 6 0 5 0;
#X connect 7 0 8 0;
#X connect 8 0 9 0;
#X connect 9 0 11 1;
#X connect 11 0 10 0;
#X connect 11 0 10 1;
#X connect 13 0 4 1;
#X connect 14 0 3 0;
#X connect 14 0 6 0;
#X restore 538 152 pd colwall;
#X obj 939 165 hsl 128 15 0 1 0 0 empty empty Volume 5 -8 0 10 -262130
-1 -1 12700 1;
#X msg 936 131 1;
#X obj 936 104 loadbang;
#X text 1093 164 Master Volume;
#X obj 936 194 s MV;
#X text 538 233 TO DO:;
#N canvas 417 409 450 300 hook 0;
#X obj 20 43 vline~;
#X obj 20 84 *~;
#X obj 129 71 noise~;
#X msg 20 14 1 1 0 \, 0 500 3;
#X obj 20 131 +~;
#X obj 129 90 bp~ 500 5;
#X obj 125 174 r v3;
#X obj 21 193 *~ 0.7;
#X obj 60 131 loadbang;
#X floatatom 60 163 5 0 0 0 - - -;
#X obj 20 236 *~;
#X obj 38 214 r MV;
#X obj 20 260 dac~;
#X connect 0 0 1 0;
#X connect 0 0 1 1;
#X connect 1 0 4 0;
#X connect 2 0 5 0;
#X connect 3 0 0 0;
#X connect 4 0 7 0;
#X connect 5 0 4 1;
#X connect 6 0 7 1;
#X connect 7 0 10 0;
#X connect 8 0 9 0;
#X connect 9 0 7 1;
#X connect 10 0 12 0;
#X connect 10 0 12 1;
#X connect 11 0 10 1;
#X restore 540 262 pd hook;
#N canvas 952 0 958 966 pickup 0;
#X obj 198 154 vline~;
#X obj 14 107 metro;
#X msg 14 274 0;
#X obj 61 185 + 1;
#X obj 14 185 int;
#X floatatom 14 328 5 0 0 0 - - -;
#X obj 14 391 osc~;
#X obj 14 359 +~ 500;
#X msg 198 126 1 200 \, 0 90 90;
#X obj 14 215 mod 3;
#X msg 41 299 100;
#X obj 14 245 select 0 1 2;
#X obj 68 274 s stop;
#X obj 14 444 *~;
#X obj 15 526 *~;
#X obj 14 566 dac~;
#X obj 14 494 +~;
#X obj 26 42 r stop;
#X msg 26 66 stop;
#X obj 14 6 r pickup;
#X text 46 469 For fun lmao;
#X obj 65 507 r MV;
#X connect 0 0 13 1;
#X connect 1 0 4 0;
#X connect 1 0 8 0;
#X connect 2 0 5 0;
#X connect 3 0 4 1;
#X connect 4 0 3 0;
#X connect 4 0 9 0;
#X connect 5 0 7 0;
#X connect 6 0 13 0;
#X connect 7 0 6 0;
#X connect 8 0 0 0;
#X connect 9 0 11 0;
#X connect 10 0 5 0;
#X connect 11 0 2 0;
#X connect 11 1 10 0;
#X connect 11 2 12 0;
#X connect 13 0 16 0;
#X connect 14 0 15 0;
#X connect 14 0 15 1;
#X connect 16 0 14 0;
#X connect 17 0 18 0;
#X connect 18 0 1 0;
#X connect 19 0 1 0;
#X connect 21 0 14 1;
#X restore 538 179 pd pickup;
#X connect 2 0 6 0;
#X connect 4 0 5 0;
#X connect 6 0 9 0;
#X connect 7 0 6 0;
#X connect 18 0 22 0;
#X connect 19 0 18 0;
#X connect 20 0 19 0;
